<svg xmlns="http://www.w3.org/2000/svg" viewBox="0 0 512 512">
<defs>
<style>.pbs{fill:#192aea;}</style>
</defs>
<path class="pbs" d="M483.9,153C444.6,66.3,357.3,6,256,6C117.9,6,6,117.9,6,256c0,25.8,3.9,50.6,11.1,74L483.9,153z"/>
<polygon class="pbs" points="450.1,178.8 41.6,333.8 230.3,486.7"/>
<path class="pbs" d="M483.9,153L232.6,504.9c7.7,0.7,15.5,1.1,23.4,1.1c138.1,0,250-111.9,250-250C506,219.3,498.1,184.4,483.9,153z"/>
<path class="pbs" d="M17.1,330c29.3,94.8,113.5,165.4,215.5,174.9L17.1,330z"/>
</svg>